<svg width="16" height="16" viewBox="0 0 1024 1024" xmlns="http://www.w3.org/2000/svg">
    <defs>
        <filter id="thicken" x="-10%" y="-10%" width="120%" height="120%">
            <feMorphology operator="dilate" radius="1" in="SourceAlpha" result="thicken"/>
            <feFlood flood-color="#515151" flood-opacity="1" result="color"/>
            <feComposite in="color" in2="thicken" operator="in" result="thickStroke"/>
            <feMerge>
                <feMergeNode in="thickStroke"/>
                <feMergeNode in="SourceGraphic"/>
            </feMerge>
        </filter>
    </defs>
    <path
            d="M298.666667 341.333333h106.666666l148.714667-89.237333c28.437333-17.066667 64.618667 3.413333 64.618667 36.586667v467.968c0 33.152-36.181333 53.632-64.618667 36.586666L405.333333 704h-106.666666a85.333333 85.333333 0 0 1-85.333334-85.333333v-192a85.333333 85.333333 0 0 1 85.333334-85.333334zM807.552 334.741333a21.333333 21.333333 0 0 1-13.717333 26.88l-81.173334 26.346667a21.333333 21.333333 0 0 1-13.162666-40.597333l81.173333-26.325334a21.333333 21.333333 0 0 1 26.88 13.696zM810.666667 525.546667a21.333333 21.333333 0 0 1-21.738667 20.949333l-85.312-1.557333a21.333333 21.333333 0 0 1 0.789333-42.666667l85.312 1.557333a21.333333 21.333333 0 0 1 20.928 21.717334zM806.4 724.821333a21.333333 21.333333 0 0 0-12.245333-27.562666l-79.658667-30.634667a21.333333 21.333333 0 1 0-15.317333 39.829333l79.658666 30.613334a21.333333 21.333333 0 0 0 27.562667-12.245334z"
            fill="#b24c4c"
            filter="url(#thicken)"
    />
</svg>
